<svg xmlns="http://www.w3.org/2000/svg" xmlns:xlink="http://www.w3.org/1999/xlink" width="1920" zoomAndPan="magnify" viewBox="0 0 1440 809.999993" height="1080" preserveAspectRatio="xMidYMid meet" version="1.0"><defs><g/></defs><g fill="#ffffff" fill-opacity="1"><g transform="translate(724.351697, 224.334237)"><g/></g></g><g fill="#8b9b5a" fill-opacity="1"><g transform="translate(68.216729, 481.637467)"><g><path d="M 115.65625 -95.90625 C 140.445312 -91.125 152.84375 -74.710938 152.84375 -46.671875 C 152.84375 -32.992188 148.609375 -21.796875 140.140625 -13.078125 C 131.679688 -4.359375 119.675781 0 104.125 0 L 15.640625 0 C 13.078125 0 11.796875 -1.28125 11.796875 -3.84375 C 11.796875 -6.40625 13.078125 -7.6875 15.640625 -7.6875 L 33.59375 -7.6875 C 36.15625 -7.6875 37.4375 -8.972656 37.4375 -11.546875 L 37.4375 -167.984375 C 37.4375 -170.546875 36.15625 -171.828125 33.59375 -171.828125 L 15.640625 -171.828125 C 13.078125 -171.828125 11.796875 -173.109375 11.796875 -175.671875 C 11.796875 -178.234375 13.078125 -179.515625 15.640625 -179.515625 L 93.859375 -179.515625 C 107.535156 -179.515625 118.648438 -175.238281 127.203125 -166.6875 C 135.742188 -158.144531 140.015625 -147.460938 140.015625 -134.640625 C 140.015625 -116.515625 131.894531 -103.601562 115.65625 -95.90625 Z M 45.140625 -101.296875 C 45.140625 -98.734375 46.421875 -97.453125 48.984375 -97.453125 L 95.140625 -97.453125 C 105.910156 -97.453125 114.800781 -101.082031 121.8125 -108.34375 C 128.820312 -115.613281 132.328125 -124.546875 132.328125 -135.140625 C 132.328125 -145.742188 128.863281 -154.507812 121.9375 -161.4375 C 115.019531 -168.363281 105.660156 -171.828125 93.859375 -171.828125 L 48.984375 -171.828125 C 46.421875 -171.828125 45.140625 -170.546875 45.140625 -167.984375 Z M 45.140625 -11.546875 C 45.140625 -8.972656 46.421875 -7.6875 48.984375 -7.6875 L 104.125 -7.6875 C 116.945312 -7.6875 126.988281 -11.316406 134.25 -18.578125 C 141.519531 -25.847656 145.15625 -35.894531 145.15625 -48.71875 C 145.15625 -61.539062 141.519531 -71.585938 134.25 -78.859375 C 126.988281 -86.128906 116.945312 -89.765625 104.125 -89.765625 L 48.984375 -89.765625 C 46.421875 -89.765625 45.140625 -88.476562 45.140625 -85.90625 Z M 45.140625 -11.546875 "/></g></g></g><g fill="#8b9b5a" fill-opacity="1"><g transform="translate(235.161403, 481.637467)"><g><path d="M 38.46875 -23.46875 C 22.738281 -40.820312 14.875 -62.914062 14.875 -89.75 C 14.875 -116.59375 22.738281 -138.691406 38.46875 -156.046875 C 54.195312 -173.398438 74.96875 -182.078125 100.78125 -182.078125 C 126.601562 -182.078125 147.378906 -173.398438 163.109375 -156.046875 C 178.835938 -138.691406 186.703125 -116.59375 186.703125 -89.75 C 186.703125 -62.914062 178.835938 -40.820312 163.109375 -23.46875 C 147.378906 -6.113281 126.601562 2.5625 100.78125 2.5625 C 74.96875 2.5625 54.195312 -6.113281 38.46875 -23.46875 Z M 44.109375 -150.53125 C 29.742188 -134.632812 22.5625 -114.375 22.5625 -89.75 C 22.5625 -65.132812 29.742188 -44.875 44.109375 -28.96875 C 58.472656 -13.070312 77.363281 -5.125 100.78125 -5.125 C 124.207031 -5.125 143.097656 -13.070312 157.453125 -28.96875 C 171.816406 -44.875 179 -65.132812 179 -89.75 C 179 -114.375 171.816406 -134.632812 157.453125 -150.53125 C 143.097656 -166.4375 124.207031 -174.390625 100.78125 -174.390625 C 77.363281 -174.390625 58.472656 -166.4375 44.109375 -150.53125 Z M 44.109375 -150.53125 "/></g></g></g><g fill="#8b9b5a" fill-opacity="1"><g transform="translate(436.72595, 481.637467)"><g><path d="M 15.640625 -7.6875 L 33.59375 -7.6875 C 36.15625 -7.6875 37.4375 -8.972656 37.4375 -11.546875 L 37.4375 -167.984375 C 37.4375 -170.546875 36.15625 -171.828125 33.59375 -171.828125 L 15.640625 -171.828125 C 13.078125 -171.828125 11.796875 -173.109375 11.796875 -175.671875 C 11.796875 -178.234375 13.078125 -179.515625 15.640625 -179.515625 L 43.859375 -179.515625 C 46.585938 -179.515625 48.722656 -178.234375 50.265625 -175.671875 L 155.40625 -15.390625 C 155.75 -14.703125 156.257812 -14.398438 156.9375 -14.484375 C 157.625 -14.578125 157.96875 -15.304688 157.96875 -16.671875 L 157.96875 -167.984375 C 157.96875 -170.546875 156.6875 -171.828125 154.125 -171.828125 L 138.734375 -171.828125 C 136.171875 -171.828125 134.890625 -173.109375 134.890625 -175.671875 C 134.890625 -178.234375 136.171875 -179.515625 138.734375 -179.515625 L 187.46875 -179.515625 C 190.03125 -179.515625 191.3125 -178.234375 191.3125 -175.671875 C 191.3125 -173.109375 190.03125 -171.828125 187.46875 -171.828125 L 169.515625 -171.828125 C 166.953125 -171.828125 165.671875 -170.546875 165.671875 -167.984375 L 165.671875 -11.546875 C 165.671875 -8.972656 166.953125 -7.6875 169.515625 -7.6875 L 187.46875 -7.6875 C 190.03125 -7.6875 191.3125 -6.40625 191.3125 -3.84375 C 191.3125 -1.28125 190.03125 0 187.46875 0 L 159.25 0 C 156.519531 0 154.382812 -1.28125 152.84375 -3.84375 L 47.703125 -164.125 C 47.359375 -164.8125 46.84375 -165.113281 46.15625 -165.03125 C 45.476562 -164.945312 45.140625 -164.21875 45.140625 -162.84375 L 45.140625 -11.546875 C 45.140625 -8.972656 46.421875 -7.6875 48.984375 -7.6875 L 64.375 -7.6875 C 66.9375 -7.6875 68.21875 -6.40625 68.21875 -3.84375 C 68.21875 -1.28125 66.9375 0 64.375 0 L 15.640625 0 C 13.078125 0 11.796875 -1.28125 11.796875 -3.84375 C 11.796875 -6.40625 13.078125 -7.6875 15.640625 -7.6875 Z M 15.640625 -7.6875 "/></g></g></g><g fill="#8b9b5a" fill-opacity="1"><g transform="translate(638.034046, 481.637467)"><g><path d="M 22.5625 -89.625 C 22.5625 -65.257812 29.613281 -45.082031 43.71875 -29.09375 C 57.820312 -13.113281 75.644531 -5.125 97.1875 -5.125 C 118.738281 -5.125 138.316406 -14.957031 155.921875 -34.625 L 155.921875 -83.34375 C 155.921875 -85.90625 154.640625 -87.1875 152.078125 -87.1875 L 136.6875 -87.1875 C 134.125 -87.1875 132.84375 -88.46875 132.84375 -91.03125 C 132.84375 -93.601562 134.125 -94.890625 136.6875 -94.890625 L 185.421875 -94.890625 C 187.984375 -94.890625 189.265625 -93.601562 189.265625 -91.03125 C 189.265625 -88.46875 187.984375 -87.1875 185.421875 -87.1875 L 167.46875 -87.1875 C 164.894531 -87.1875 163.609375 -85.90625 163.609375 -83.34375 L 163.609375 -3.84375 C 163.609375 -1.28125 162.328125 0 159.765625 0 C 157.203125 0 155.921875 -1.28125 155.921875 -3.84375 L 155.921875 -16.671875 C 155.921875 -20.773438 154.550781 -21.628906 151.8125 -19.234375 C 134.894531 -4.703125 117.03125 2.5625 98.21875 2.5625 C 73.425781 2.5625 53.335938 -6.15625 37.953125 -23.59375 C 22.566406 -41.03125 14.875 -63.039062 14.875 -89.625 C 14.875 -116.21875 22.4375 -138.273438 37.5625 -155.796875 C 52.695312 -173.316406 72.0625 -182.078125 95.65625 -182.078125 C 116.175781 -182.078125 134.894531 -174.8125 151.8125 -160.28125 C 154.550781 -157.882812 155.921875 -158.738281 155.921875 -162.84375 L 155.921875 -175.671875 C 155.921875 -178.234375 157.203125 -179.515625 159.765625 -179.515625 C 162.328125 -179.515625 163.609375 -178.234375 163.609375 -175.671875 L 163.609375 -126.9375 C 163.609375 -124.375 162.328125 -123.09375 159.765625 -123.09375 C 157.203125 -123.09375 155.921875 -124.375 155.921875 -126.9375 L 155.921875 -144.890625 C 151.304688 -150.191406 145.921875 -155.066406 139.765625 -159.515625 C 125.742188 -169.429688 111.039062 -174.390625 95.65625 -174.390625 C 74.625 -174.390625 57.179688 -166.351562 43.328125 -150.28125 C 29.484375 -134.207031 22.5625 -113.988281 22.5625 -89.625 Z M 22.5625 -89.625 "/></g></g></g><g fill="#8b9b5a" fill-opacity="1"><g transform="translate(833.95687, 481.637467)"><g><path d="M 101.5625 -89.765625 C 115.570312 -89.765625 126.335938 -93.351562 133.859375 -100.53125 C 141.390625 -107.707031 145.15625 -117.796875 145.15625 -130.796875 C 145.15625 -143.785156 141.390625 -153.867188 133.859375 -161.046875 C 126.335938 -168.234375 115.570312 -171.828125 101.5625 -171.828125 L 48.984375 -171.828125 C 46.421875 -171.828125 45.140625 -170.546875 45.140625 -167.984375 L 45.140625 -93.609375 C 45.140625 -91.046875 46.421875 -89.765625 48.984375 -89.765625 Z M 45.140625 -11.546875 C 45.140625 -8.972656 46.421875 -7.6875 48.984375 -7.6875 L 64.375 -7.6875 C 66.9375 -7.6875 68.21875 -6.40625 68.21875 -3.84375 C 68.21875 -1.28125 66.9375 0 64.375 0 L 15.640625 0 C 13.078125 0 11.796875 -1.28125 11.796875 -3.84375 C 11.796875 -6.40625 13.078125 -7.6875 15.640625 -7.6875 L 33.59375 -7.6875 C 36.15625 -7.6875 37.4375 -8.972656 37.4375 -11.546875 L 37.4375 -167.984375 C 37.4375 -170.546875 36.15625 -171.828125 33.59375 -171.828125 L 15.640625 -171.828125 C 13.078125 -171.828125 11.796875 -173.109375 11.796875 -175.671875 C 11.796875 -178.234375 13.078125 -179.515625 15.640625 -179.515625 L 101.5625 -179.515625 C 118.144531 -179.515625 130.835938 -175.238281 139.640625 -166.6875 C 148.441406 -158.144531 152.84375 -146.179688 152.84375 -130.796875 C 152.84375 -115.398438 148.441406 -103.425781 139.640625 -94.875 C 130.835938 -86.332031 118.144531 -82.0625 101.5625 -82.0625 L 100.265625 -82.0625 C 98.898438 -82.0625 97.914062 -81.675781 97.3125 -80.90625 C 96.71875 -80.132812 96.847656 -79.238281 97.703125 -78.21875 L 146.4375 -11.546875 C 148.65625 -8.972656 150.789062 -7.6875 152.84375 -7.6875 L 169.515625 -7.6875 C 172.078125 -7.6875 173.359375 -6.40625 173.359375 -3.84375 C 173.359375 -1.28125 172.078125 0 169.515625 0 L 118.21875 0 C 115.65625 0 114.375 -1.28125 114.375 -3.84375 C 114.375 -6.40625 115.65625 -7.6875 118.21875 -7.6875 L 134.890625 -7.6875 C 137.972656 -7.6875 138.398438 -8.972656 136.171875 -11.546875 L 84.890625 -82.0625 L 48.984375 -82.0625 C 46.421875 -82.0625 45.140625 -80.78125 45.140625 -78.21875 Z M 45.140625 -11.546875 "/></g></g></g><g fill="#8b9b5a" fill-opacity="1"><g transform="translate(1010.389985, 481.637467)"><g><path d="M 11.03125 -179.515625 L 59.75 -179.515625 C 62.3125 -179.515625 63.59375 -178.234375 63.59375 -175.671875 C 63.59375 -173.109375 62.3125 -171.828125 59.75 -171.828125 L 44.359375 -171.828125 C 41.796875 -171.828125 40.515625 -170.546875 40.515625 -167.984375 L 40.515625 -64.109375 C 40.515625 -46.328125 46.070312 -32.050781 57.1875 -21.28125 C 68.300781 -10.507812 82.40625 -5.125 99.5 -5.125 C 116.601562 -5.125 130.707031 -10.507812 141.8125 -21.28125 C 152.925781 -32.050781 158.484375 -46.328125 158.484375 -64.109375 L 158.484375 -167.984375 C 158.484375 -170.546875 157.203125 -171.828125 154.640625 -171.828125 L 139.25 -171.828125 C 136.6875 -171.828125 135.40625 -173.109375 135.40625 -175.671875 C 135.40625 -178.234375 136.6875 -179.515625 139.25 -179.515625 L 187.984375 -179.515625 C 190.546875 -179.515625 191.828125 -178.234375 191.828125 -175.671875 C 191.828125 -173.109375 190.546875 -171.828125 187.984375 -171.828125 L 170.03125 -171.828125 C 167.46875 -171.828125 166.1875 -170.546875 166.1875 -167.984375 L 166.1875 -64.109375 C 166.1875 -44.453125 159.898438 -28.425781 147.328125 -16.03125 C 134.765625 -3.632812 118.820312 2.5625 99.5 2.5625 C 80.1875 2.5625 64.242188 -3.632812 51.671875 -16.03125 C 39.109375 -28.425781 32.828125 -44.453125 32.828125 -64.109375 L 32.828125 -167.984375 C 32.828125 -170.546875 31.546875 -171.828125 28.984375 -171.828125 L 11.03125 -171.828125 C 8.46875 -171.828125 7.1875 -173.109375 7.1875 -175.671875 C 7.1875 -178.234375 8.46875 -179.515625 11.03125 -179.515625 Z M 11.03125 -179.515625 "/></g></g></g><g fill="#8b9b5a" fill-opacity="1"><g transform="translate(1209.390137, 481.637467)"><g><path d="M 115.65625 -95.90625 C 140.445312 -91.125 152.84375 -74.710938 152.84375 -46.671875 C 152.84375 -32.992188 148.609375 -21.796875 140.140625 -13.078125 C 131.679688 -4.359375 119.675781 0 104.125 0 L 15.640625 0 C 13.078125 0 11.796875 -1.28125 11.796875 -3.84375 C 11.796875 -6.40625 13.078125 -7.6875 15.640625 -7.6875 L 33.59375 -7.6875 C 36.15625 -7.6875 37.4375 -8.972656 37.4375 -11.546875 L 37.4375 -167.984375 C 37.4375 -170.546875 36.15625 -171.828125 33.59375 -171.828125 L 15.640625 -171.828125 C 13.078125 -171.828125 11.796875 -173.109375 11.796875 -175.671875 C 11.796875 -178.234375 13.078125 -179.515625 15.640625 -179.515625 L 93.859375 -179.515625 C 107.535156 -179.515625 118.648438 -175.238281 127.203125 -166.6875 C 135.742188 -158.144531 140.015625 -147.460938 140.015625 -134.640625 C 140.015625 -116.515625 131.894531 -103.601562 115.65625 -95.90625 Z M 45.140625 -101.296875 C 45.140625 -98.734375 46.421875 -97.453125 48.984375 -97.453125 L 95.140625 -97.453125 C 105.910156 -97.453125 114.800781 -101.082031 121.8125 -108.34375 C 128.820312 -115.613281 132.328125 -124.546875 132.328125 -135.140625 C 132.328125 -145.742188 128.863281 -154.507812 121.9375 -161.4375 C 115.019531 -168.363281 105.660156 -171.828125 93.859375 -171.828125 L 48.984375 -171.828125 C 46.421875 -171.828125 45.140625 -170.546875 45.140625 -167.984375 Z M 45.140625 -11.546875 C 45.140625 -8.972656 46.421875 -7.6875 48.984375 -7.6875 L 104.125 -7.6875 C 116.945312 -7.6875 126.988281 -11.316406 134.25 -18.578125 C 141.519531 -25.847656 145.15625 -35.894531 145.15625 -48.71875 C 145.15625 -61.539062 141.519531 -71.585938 134.25 -78.859375 C 126.988281 -86.128906 116.945312 -89.765625 104.125 -89.765625 L 48.984375 -89.765625 C 46.421875 -89.765625 45.140625 -88.476562 45.140625 -85.90625 Z M 45.140625 -11.546875 "/></g></g></g><g fill="#ffffff" fill-opacity="1"><g transform="translate(729.060687, 667.675484)"><g/></g></g><g fill="#545454" fill-opacity="1"><g transform="translate(408.050405, 209.789053)"><g><path d="M 18.828125 -21.46875 L -0.171875 -57.8125 L 13.296875 -57.8125 L 23.859375 -36.09375 L 25.015625 -29.96875 L 25.4375 -29.96875 L 26.671875 -36.25 L 36.90625 -57.8125 L 49.046875 -57.8125 L 30.140625 -21.546875 L 30.140625 0 L 18.828125 0 Z M 18.828125 -21.46875 "/></g></g></g><g fill="#545454" fill-opacity="1"><g transform="translate(481.698125, 209.789053)"><g><path d="M 3.140625 -28.90625 C 3.140625 -38.539062 5.257812 -45.957031 9.5 -51.15625 C 13.738281 -56.351562 19.789062 -58.953125 27.65625 -58.953125 C 31.789062 -58.953125 35.398438 -58.238281 38.484375 -56.8125 C 41.566406 -55.382812 44.125 -53.347656 46.15625 -50.703125 C 48.195312 -48.054688 49.710938 -44.890625 50.703125 -41.203125 C 51.691406 -37.515625 52.1875 -33.414062 52.1875 -28.90625 C 52.1875 -19.269531 50.050781 -11.847656 45.78125 -6.640625 C 41.519531 -1.441406 35.476562 1.15625 27.65625 1.15625 C 23.476562 1.15625 19.847656 0.441406 16.765625 -0.984375 C 13.679688 -2.421875 11.132812 -4.457031 9.125 -7.09375 C 7.113281 -9.738281 5.613281 -12.90625 4.625 -16.59375 C 3.632812 -20.28125 3.140625 -24.382812 3.140625 -28.90625 Z M 15.03125 -28.90625 C 15.03125 -25.988281 15.273438 -23.300781 15.765625 -20.84375 C 16.265625 -18.394531 17.023438 -16.289062 18.046875 -14.53125 C 19.066406 -12.769531 20.375 -11.394531 21.96875 -10.40625 C 23.5625 -9.414062 25.457031 -8.921875 27.65625 -8.921875 C 31.675781 -8.921875 34.785156 -10.488281 36.984375 -13.625 C 39.191406 -16.757812 40.296875 -21.851562 40.296875 -28.90625 C 40.296875 -31.707031 40.0625 -34.316406 39.59375 -36.734375 C 39.125 -39.160156 38.394531 -41.28125 37.40625 -43.09375 C 36.414062 -44.914062 35.117188 -46.335938 33.515625 -47.359375 C 31.921875 -48.378906 29.96875 -48.890625 27.65625 -48.890625 C 23.644531 -48.890625 20.535156 -47.273438 18.328125 -44.046875 C 16.128906 -40.828125 15.03125 -35.78125 15.03125 -28.90625 Z M 15.03125 -28.90625 "/></g></g></g><g fill="#545454" fill-opacity="1"><g transform="translate(561.784649, 209.789053)"><g><path d="M 36.328125 -57.8125 L 47.0625 -57.8125 L 47.0625 -20.484375 C 47.0625 -16.734375 46.566406 -13.507812 45.578125 -10.8125 C 44.585938 -8.113281 43.210938 -5.882812 41.453125 -4.125 C 39.691406 -2.363281 37.546875 -1.070312 35.015625 -0.25 C 32.484375 0.570312 29.703125 0.984375 26.671875 0.984375 C 12.023438 0.984375 4.703125 -5.703125 4.703125 -19.078125 L 4.703125 -57.8125 L 16.015625 -57.8125 L 16.015625 -21.3125 C 16.015625 -19.050781 16.222656 -17.132812 16.640625 -15.5625 C 17.054688 -14 17.703125 -12.734375 18.578125 -11.765625 C 19.460938 -10.804688 20.5625 -10.117188 21.875 -9.703125 C 23.195312 -9.285156 24.738281 -9.078125 26.5 -9.078125 C 29.96875 -9.078125 32.472656 -10.039062 34.015625 -11.96875 C 35.554688 -13.894531 36.328125 -17.007812 36.328125 -21.3125 Z M 36.328125 -57.8125 "/></g></g></g><g fill="#545454" fill-opacity="1"><g transform="translate(638.321574, 209.789053)"><g><path d="M 4.953125 -57.234375 C 6.222656 -57.453125 7.585938 -57.65625 9.046875 -57.84375 C 10.503906 -58.039062 11.960938 -58.191406 13.421875 -58.296875 C 14.878906 -58.410156 16.296875 -58.492188 17.671875 -58.546875 C 19.046875 -58.597656 20.3125 -58.625 21.46875 -58.625 C 24.164062 -58.625 26.820312 -58.375 29.4375 -57.875 C 32.050781 -57.382812 34.390625 -56.535156 36.453125 -55.328125 C 38.523438 -54.117188 40.175781 -52.453125 41.40625 -50.328125 C 42.644531 -48.210938 43.265625 -45.554688 43.265625 -42.359375 C 43.265625 -37.628906 42.164062 -33.773438 39.96875 -30.796875 C 37.769531 -27.828125 34.820312 -25.765625 31.125 -24.609375 L 35.171875 -22.046875 L 48.390625 0 L 35.34375 0 L 22.21875 -22.625 L 16.265625 -23.703125 L 16.265625 0 L 4.953125 0 Z M 22.296875 -48.5625 C 21.140625 -48.5625 19.992188 -48.53125 18.859375 -48.46875 C 17.734375 -48.414062 16.867188 -48.304688 16.265625 -48.140625 L 16.265625 -31.375 L 21.0625 -31.375 C 24.195312 -31.375 26.695312 -32.085938 28.5625 -33.515625 C 30.4375 -34.953125 31.375 -37.320312 31.375 -40.625 C 31.375 -43.101562 30.601562 -45.046875 29.0625 -46.453125 C 27.519531 -47.859375 25.265625 -48.5625 22.296875 -48.5625 Z M 22.296875 -48.5625 "/></g></g></g><g fill="#545454" fill-opacity="1"><g transform="translate(712.79479, 209.789053)"><g/></g></g><g fill="#545454" fill-opacity="1"><g transform="translate(758.458445, 209.789053)"><g><path d="M 3.140625 -28.90625 C 3.140625 -38.539062 5.257812 -45.957031 9.5 -51.15625 C 13.738281 -56.351562 19.789062 -58.953125 27.65625 -58.953125 C 31.789062 -58.953125 35.398438 -58.238281 38.484375 -56.8125 C 41.566406 -55.382812 44.125 -53.347656 46.15625 -50.703125 C 48.195312 -48.054688 49.710938 -44.890625 50.703125 -41.203125 C 51.691406 -37.515625 52.1875 -33.414062 52.1875 -28.90625 C 52.1875 -19.269531 50.050781 -11.847656 45.78125 -6.640625 C 41.519531 -1.441406 35.476562 1.15625 27.65625 1.15625 C 23.476562 1.15625 19.847656 0.441406 16.765625 -0.984375 C 13.679688 -2.421875 11.132812 -4.457031 9.125 -7.09375 C 7.113281 -9.738281 5.613281 -12.90625 4.625 -16.59375 C 3.632812 -20.28125 3.140625 -24.382812 3.140625 -28.90625 Z M 15.03125 -28.90625 C 15.03125 -25.988281 15.273438 -23.300781 15.765625 -20.84375 C 16.265625 -18.394531 17.023438 -16.289062 18.046875 -14.53125 C 19.066406 -12.769531 20.375 -11.394531 21.96875 -10.40625 C 23.5625 -9.414062 25.457031 -8.921875 27.65625 -8.921875 C 31.675781 -8.921875 34.785156 -10.488281 36.984375 -13.625 C 39.191406 -16.757812 40.296875 -21.851562 40.296875 -28.90625 C 40.296875 -31.707031 40.0625 -34.316406 39.59375 -36.734375 C 39.125 -39.160156 38.394531 -41.28125 37.40625 -43.09375 C 36.414062 -44.914062 35.117188 -46.335938 33.515625 -47.359375 C 31.921875 -48.378906 29.96875 -48.890625 27.65625 -48.890625 C 23.644531 -48.890625 20.535156 -47.273438 18.328125 -44.046875 C 16.128906 -40.828125 15.03125 -35.78125 15.03125 -28.90625 Z M 15.03125 -28.90625 "/></g></g></g><g fill="#545454" fill-opacity="1"><g transform="translate(838.544968, 209.789053)"><g><path d="M 19.984375 -25.515625 L 21.0625 -15.28125 L 21.390625 -15.28125 L 22.546875 -25.6875 L 32.625 -57.8125 L 40.046875 -57.8125 L 49.953125 -25.515625 L 51.109375 -15.28125 L 51.453125 -15.28125 L 52.6875 -25.6875 L 59.703125 -57.8125 L 71.1875 -57.8125 L 55.25 0.40625 L 47.640625 0.40625 L 37.328125 -31.703125 L 35.921875 -40.546875 L 35.515625 -40.546875 L 34.109375 -31.625 L 23.859375 0.40625 L 15.859375 0.40625 L 0 -57.8125 L 12.296875 -57.8125 Z M 19.984375 -25.515625 "/></g></g></g><g fill="#545454" fill-opacity="1"><g transform="translate(934.480877, 209.789053)"><g><path d="M 19.328125 -30.140625 L 14.78125 -39.21875 L 14.375 -39.21875 L 15.6875 -30.140625 L 15.6875 0 L 4.953125 0 L 4.953125 -58.21875 L 13.21875 -58.21875 L 35.09375 -27.421875 L 39.46875 -18.578125 L 39.890625 -18.578125 L 38.5625 -27.421875 L 38.5625 -57.8125 L 49.296875 -57.8125 L 49.296875 0.40625 L 41.046875 0.40625 Z M 19.328125 -30.140625 "/></g></g></g><g fill="#545454" fill-opacity="1"><g transform="translate(161.890612, 617.461879)"><g><path d="M 4.953125 -57.296875 C 6.222656 -57.515625 7.585938 -57.71875 9.046875 -57.90625 C 10.515625 -58.101562 11.976562 -58.253906 13.4375 -58.359375 C 14.894531 -58.472656 16.3125 -58.554688 17.6875 -58.609375 C 19.070312 -58.671875 20.34375 -58.703125 21.5 -58.703125 C 24.195312 -58.703125 26.851562 -58.453125 29.46875 -57.953125 C 32.09375 -57.453125 34.4375 -56.597656 36.5 -55.390625 C 38.5625 -54.179688 40.210938 -52.515625 41.453125 -50.390625 C 42.691406 -48.265625 43.3125 -45.601562 43.3125 -42.40625 C 43.3125 -37.664062 42.207031 -33.804688 40 -30.828125 C 37.800781 -27.859375 34.859375 -25.796875 31.171875 -24.640625 L 35.21875 -22.078125 L 48.453125 0 L 35.390625 0 L 22.234375 -22.65625 L 16.28125 -23.734375 L 16.28125 0 L 4.953125 0 Z M 22.328125 -48.609375 C 21.160156 -48.609375 20.015625 -48.582031 18.890625 -48.53125 C 17.765625 -48.476562 16.894531 -48.367188 16.28125 -48.203125 L 16.28125 -31.421875 L 21.078125 -31.421875 C 24.222656 -31.421875 26.734375 -32.132812 28.609375 -33.5625 C 30.484375 -35 31.421875 -37.367188 31.421875 -40.671875 C 31.421875 -43.148438 30.644531 -45.09375 29.09375 -46.5 C 27.550781 -47.90625 25.296875 -48.609375 22.328125 -48.609375 Z M 22.328125 -48.609375 "/></g></g></g><g fill="#545454" fill-opacity="1"><g transform="translate(236.452518, 617.461879)"><g><path d="M 4.953125 -57.875 L 39.265625 -57.875 L 39.265625 -47.78125 L 16.28125 -47.78125 L 16.28125 -34.3125 L 37.203125 -34.3125 L 37.203125 -24.21875 L 16.28125 -24.21875 L 16.28125 -10.09375 L 39.6875 -10.09375 L 39.6875 0 L 4.953125 0 Z M 4.953125 -57.875 "/></g></g></g><g fill="#545454" fill-opacity="1"><g transform="translate(304.401596, 617.461879)"><g><path d="M 44.140625 -2.390625 C 42.378906 -1.128906 40.132812 -0.222656 37.40625 0.328125 C 34.675781 0.878906 31.878906 1.15625 29.015625 1.15625 C 25.546875 1.15625 22.253906 0.617188 19.140625 -0.453125 C 16.023438 -1.523438 13.28125 -3.257812 10.90625 -5.65625 C 8.539062 -8.0625 6.65625 -11.175781 5.25 -15 C 3.84375 -18.832031 3.140625 -23.476562 3.140625 -28.9375 C 3.140625 -34.613281 3.925781 -39.363281 5.5 -43.1875 C 7.070312 -47.019531 9.109375 -50.109375 11.609375 -52.453125 C 14.117188 -54.796875 16.914062 -56.476562 20 -57.5 C 23.09375 -58.519531 26.179688 -59.03125 29.265625 -59.03125 C 32.566406 -59.03125 35.363281 -58.804688 37.65625 -58.359375 C 39.945312 -57.921875 41.832031 -57.398438 43.3125 -56.796875 L 41.09375 -47.203125 C 39.820312 -47.804688 38.316406 -48.242188 36.578125 -48.515625 C 34.847656 -48.796875 32.742188 -48.9375 30.265625 -48.9375 C 25.679688 -48.9375 22 -47.3125 19.21875 -44.0625 C 16.4375 -40.8125 15.046875 -35.769531 15.046875 -28.9375 C 15.046875 -25.957031 15.375 -23.238281 16.03125 -20.78125 C 16.695312 -18.332031 17.703125 -16.238281 19.046875 -14.5 C 20.398438 -12.769531 22.082031 -11.421875 24.09375 -10.453125 C 26.101562 -9.492188 28.429688 -9.015625 31.078125 -9.015625 C 33.566406 -9.015625 35.664062 -9.257812 37.375 -9.75 C 39.082031 -10.25 40.566406 -10.882812 41.828125 -11.65625 Z M 44.140625 -2.390625 "/></g></g></g><g fill="#545454" fill-opacity="1"><g transform="translate(375.409074, 617.461879)"><g><path d="M 6.125 -57.875 L 17.4375 -57.875 L 17.4375 0 L 6.125 0 Z M 6.125 -57.875 "/></g></g></g><g fill="#545454" fill-opacity="1"><g transform="translate(423.767611, 617.461879)"><g><path d="M 4.953125 -57.296875 C 7.273438 -57.734375 9.828125 -58.078125 12.609375 -58.328125 C 15.390625 -58.578125 18.160156 -58.703125 20.921875 -58.703125 C 23.785156 -58.703125 26.660156 -58.46875 29.546875 -58 C 32.441406 -57.53125 35.046875 -56.59375 37.359375 -55.1875 C 39.679688 -53.78125 41.570312 -51.820312 43.03125 -49.3125 C 44.488281 -46.800781 45.21875 -43.535156 45.21875 -39.515625 C 45.21875 -35.878906 44.582031 -32.804688 43.3125 -30.296875 C 42.050781 -27.785156 40.375 -25.734375 38.28125 -24.140625 C 36.1875 -22.546875 33.800781 -21.390625 31.125 -20.671875 C 28.445312 -19.953125 25.675781 -19.59375 22.8125 -19.59375 C 22.539062 -19.59375 22.097656 -19.59375 21.484375 -19.59375 C 20.878906 -19.59375 20.242188 -19.601562 19.578125 -19.625 C 18.921875 -19.65625 18.273438 -19.695312 17.640625 -19.75 C 17.015625 -19.8125 16.5625 -19.867188 16.28125 -19.921875 L 16.28125 0 L 4.953125 0 Z M 21.828125 -48.9375 C 20.722656 -48.9375 19.675781 -48.894531 18.6875 -48.8125 C 17.695312 -48.726562 16.894531 -48.632812 16.28125 -48.53125 L 16.28125 -29.765625 C 16.5 -29.703125 16.828125 -29.644531 17.265625 -29.59375 C 17.710938 -29.539062 18.179688 -29.5 18.671875 -29.46875 C 19.171875 -29.445312 19.65625 -29.4375 20.125 -29.4375 C 20.59375 -29.4375 20.9375 -29.4375 21.15625 -29.4375 C 22.644531 -29.4375 24.117188 -29.570312 25.578125 -29.84375 C 27.046875 -30.125 28.359375 -30.632812 29.515625 -31.375 C 30.671875 -32.113281 31.59375 -33.144531 32.28125 -34.46875 C 32.96875 -35.789062 33.3125 -37.53125 33.3125 -39.6875 C 33.3125 -41.5 32.976562 -43 32.3125 -44.1875 C 31.65625 -45.375 30.789062 -46.320312 29.71875 -47.03125 C 28.644531 -47.75 27.414062 -48.242188 26.03125 -48.515625 C 24.65625 -48.796875 23.253906 -48.9375 21.828125 -48.9375 Z M 21.828125 -48.9375 "/></g></g></g><g fill="#545454" fill-opacity="1"><g transform="translate(495.849698, 617.461879)"><g><path d="M 4.953125 -57.875 L 39.265625 -57.875 L 39.265625 -47.78125 L 16.28125 -47.78125 L 16.28125 -34.3125 L 37.203125 -34.3125 L 37.203125 -24.21875 L 16.28125 -24.21875 L 16.28125 -10.09375 L 39.6875 -10.09375 L 39.6875 0 L 4.953125 0 Z M 4.953125 -57.875 "/></g></g></g><g fill="#545454" fill-opacity="1"><g transform="translate(563.798785, 617.461879)"><g/></g></g><g fill="#545454" fill-opacity="1"><g transform="translate(609.512206, 617.461879)"><g><path d="M 44.140625 -2.390625 C 42.378906 -1.128906 40.132812 -0.222656 37.40625 0.328125 C 34.675781 0.878906 31.878906 1.15625 29.015625 1.15625 C 25.546875 1.15625 22.253906 0.617188 19.140625 -0.453125 C 16.023438 -1.523438 13.28125 -3.257812 10.90625 -5.65625 C 8.539062 -8.0625 6.65625 -11.175781 5.25 -15 C 3.84375 -18.832031 3.140625 -23.476562 3.140625 -28.9375 C 3.140625 -34.613281 3.925781 -39.363281 5.5 -43.1875 C 7.070312 -47.019531 9.109375 -50.109375 11.609375 -52.453125 C 14.117188 -54.796875 16.914062 -56.476562 20 -57.5 C 23.09375 -58.519531 26.179688 -59.03125 29.265625 -59.03125 C 32.566406 -59.03125 35.363281 -58.804688 37.65625 -58.359375 C 39.945312 -57.921875 41.832031 -57.398438 43.3125 -56.796875 L 41.09375 -47.203125 C 39.820312 -47.804688 38.316406 -48.242188 36.578125 -48.515625 C 34.847656 -48.796875 32.742188 -48.9375 30.265625 -48.9375 C 25.679688 -48.9375 22 -47.3125 19.21875 -44.0625 C 16.4375 -40.8125 15.046875 -35.769531 15.046875 -28.9375 C 15.046875 -25.957031 15.375 -23.238281 16.03125 -20.78125 C 16.695312 -18.332031 17.703125 -16.238281 19.046875 -14.5 C 20.398438 -12.769531 22.082031 -11.421875 24.09375 -10.453125 C 26.101562 -9.492188 28.429688 -9.015625 31.078125 -9.015625 C 33.566406 -9.015625 35.664062 -9.257812 37.375 -9.75 C 39.082031 -10.25 40.566406 -10.882812 41.828125 -11.65625 Z M 44.140625 -2.390625 "/></g></g></g><g fill="#545454" fill-opacity="1"><g transform="translate(680.519703, 617.461879)"><g><path d="M 3.140625 -28.9375 C 3.140625 -38.582031 5.257812 -46.007812 9.5 -51.21875 C 13.75 -56.425781 19.8125 -59.03125 27.6875 -59.03125 C 31.820312 -59.03125 35.429688 -58.3125 38.515625 -56.875 C 41.609375 -55.445312 44.171875 -53.410156 46.203125 -50.765625 C 48.242188 -48.117188 49.757812 -44.945312 50.75 -41.25 C 51.75 -37.5625 52.25 -33.457031 52.25 -28.9375 C 52.25 -19.289062 50.113281 -11.863281 45.84375 -6.65625 C 41.570312 -1.445312 35.519531 1.15625 27.6875 1.15625 C 23.5 1.15625 19.863281 0.441406 16.78125 -0.984375 C 13.695312 -2.421875 11.148438 -4.460938 9.140625 -7.109375 C 7.128906 -9.753906 5.625 -12.921875 4.625 -16.609375 C 3.632812 -20.304688 3.140625 -24.414062 3.140625 -28.9375 Z M 15.046875 -28.9375 C 15.046875 -26.007812 15.289062 -23.320312 15.78125 -20.875 C 16.28125 -18.425781 17.039062 -16.316406 18.0625 -14.546875 C 19.082031 -12.785156 20.390625 -11.40625 21.984375 -10.40625 C 23.585938 -9.414062 25.488281 -8.921875 27.6875 -8.921875 C 31.71875 -8.921875 34.832031 -10.492188 37.03125 -13.640625 C 39.238281 -16.785156 40.34375 -21.882812 40.34375 -28.9375 C 40.34375 -31.75 40.109375 -34.363281 39.640625 -36.78125 C 39.171875 -39.207031 38.441406 -41.332031 37.453125 -43.15625 C 36.460938 -44.976562 35.164062 -46.394531 33.5625 -47.40625 C 31.96875 -48.425781 30.007812 -48.9375 27.6875 -48.9375 C 23.664062 -48.9375 20.550781 -47.320312 18.34375 -44.09375 C 16.144531 -40.875 15.046875 -35.820312 15.046875 -28.9375 Z M 15.046875 -28.9375 "/></g></g></g><g fill="#545454" fill-opacity="1"><g transform="translate(760.702535, 617.461879)"><g><path d="M 41.578125 0 L 4.953125 0 L 4.953125 -57.875 L 16.28125 -57.875 L 16.28125 -10.09375 L 41.578125 -10.09375 Z M 41.578125 0 "/></g></g></g><g fill="#545454" fill-opacity="1"><g transform="translate(827.990325, 617.461879)"><g><path d="M 41.578125 0 L 4.953125 0 L 4.953125 -57.875 L 16.28125 -57.875 L 16.28125 -10.09375 L 41.578125 -10.09375 Z M 41.578125 0 "/></g></g></g><g fill="#545454" fill-opacity="1"><g transform="translate(895.27808, 617.461879)"><g><path d="M 4.953125 -57.875 L 39.265625 -57.875 L 39.265625 -47.78125 L 16.28125 -47.78125 L 16.28125 -34.3125 L 37.203125 -34.3125 L 37.203125 -24.21875 L 16.28125 -24.21875 L 16.28125 -10.09375 L 39.6875 -10.09375 L 39.6875 0 L 4.953125 0 Z M 4.953125 -57.875 "/></g></g></g><g fill="#545454" fill-opacity="1"><g transform="translate(963.227131, 617.461879)"><g><path d="M 44.140625 -2.390625 C 42.378906 -1.128906 40.132812 -0.222656 37.40625 0.328125 C 34.675781 0.878906 31.878906 1.15625 29.015625 1.15625 C 25.546875 1.15625 22.253906 0.617188 19.140625 -0.453125 C 16.023438 -1.523438 13.28125 -3.257812 10.90625 -5.65625 C 8.539062 -8.0625 6.65625 -11.175781 5.25 -15 C 3.84375 -18.832031 3.140625 -23.476562 3.140625 -28.9375 C 3.140625 -34.613281 3.925781 -39.363281 5.5 -43.1875 C 7.070312 -47.019531 9.109375 -50.109375 11.609375 -52.453125 C 14.117188 -54.796875 16.914062 -56.476562 20 -57.5 C 23.09375 -58.519531 26.179688 -59.03125 29.265625 -59.03125 C 32.566406 -59.03125 35.363281 -58.804688 37.65625 -58.359375 C 39.945312 -57.921875 41.832031 -57.398438 43.3125 -56.796875 L 41.09375 -47.203125 C 39.820312 -47.804688 38.316406 -48.242188 36.578125 -48.515625 C 34.847656 -48.796875 32.742188 -48.9375 30.265625 -48.9375 C 25.679688 -48.9375 22 -47.3125 19.21875 -44.0625 C 16.4375 -40.8125 15.046875 -35.769531 15.046875 -28.9375 C 15.046875 -25.957031 15.375 -23.238281 16.03125 -20.78125 C 16.695312 -18.332031 17.703125 -16.238281 19.046875 -14.5 C 20.398438 -12.769531 22.082031 -11.421875 24.09375 -10.453125 C 26.101562 -9.492188 28.429688 -9.015625 31.078125 -9.015625 C 33.566406 -9.015625 35.664062 -9.257812 37.375 -9.75 C 39.082031 -10.25 40.566406 -10.882812 41.828125 -11.65625 Z M 44.140625 -2.390625 "/></g></g></g><g fill="#545454" fill-opacity="1"><g transform="translate(1034.23459, 617.461879)"><g><path d="M 46.046875 -47.78125 L 29.1875 -47.78125 L 29.1875 0 L 17.859375 0 L 17.859375 -47.78125 L 0.90625 -47.78125 L 0.90625 -57.875 L 46.046875 -57.875 Z M 46.046875 -47.78125 "/></g></g></g><g fill="#545454" fill-opacity="1"><g transform="translate(1105.985992, 617.461879)"><g><path d="M 6.125 -57.875 L 17.4375 -57.875 L 17.4375 0 L 6.125 0 Z M 6.125 -57.875 "/></g></g></g><g fill="#545454" fill-opacity="1"><g transform="translate(1154.344494, 617.461879)"><g><path d="M 3.140625 -28.9375 C 3.140625 -38.582031 5.257812 -46.007812 9.5 -51.21875 C 13.75 -56.425781 19.8125 -59.03125 27.6875 -59.03125 C 31.820312 -59.03125 35.429688 -58.3125 38.515625 -56.875 C 41.609375 -55.445312 44.171875 -53.410156 46.203125 -50.765625 C 48.242188 -48.117188 49.757812 -44.945312 50.75 -41.25 C 51.75 -37.5625 52.25 -33.457031 52.25 -28.9375 C 52.25 -19.289062 50.113281 -11.863281 45.84375 -6.65625 C 41.570312 -1.445312 35.519531 1.15625 27.6875 1.15625 C 23.5 1.15625 19.863281 0.441406 16.78125 -0.984375 C 13.695312 -2.421875 11.148438 -4.460938 9.140625 -7.109375 C 7.128906 -9.753906 5.625 -12.921875 4.625 -16.609375 C 3.632812 -20.304688 3.140625 -24.414062 3.140625 -28.9375 Z M 15.046875 -28.9375 C 15.046875 -26.007812 15.289062 -23.320312 15.78125 -20.875 C 16.28125 -18.425781 17.039062 -16.316406 18.0625 -14.546875 C 19.082031 -12.785156 20.390625 -11.40625 21.984375 -10.40625 C 23.585938 -9.414062 25.488281 -8.921875 27.6875 -8.921875 C 31.71875 -8.921875 34.832031 -10.492188 37.03125 -13.640625 C 39.238281 -16.785156 40.34375 -21.882812 40.34375 -28.9375 C 40.34375 -31.75 40.109375 -34.363281 39.640625 -36.78125 C 39.171875 -39.207031 38.441406 -41.332031 37.453125 -43.15625 C 36.460938 -44.976562 35.164062 -46.394531 33.5625 -47.40625 C 31.96875 -48.425781 30.007812 -48.9375 27.6875 -48.9375 C 23.664062 -48.9375 20.550781 -47.320312 18.34375 -44.09375 C 16.144531 -40.875 15.046875 -35.820312 15.046875 -28.9375 Z M 15.046875 -28.9375 "/></g></g></g><g fill="#545454" fill-opacity="1"><g transform="translate(1234.527326, 617.461879)"><g><path d="M 19.34375 -30.171875 L 14.796875 -39.265625 L 14.390625 -39.265625 L 15.703125 -30.171875 L 15.703125 0 L 4.953125 0 L 4.953125 -58.28125 L 13.234375 -58.28125 L 35.140625 -27.453125 L 39.515625 -18.59375 L 39.9375 -18.59375 L 38.609375 -27.453125 L 38.609375 -57.875 L 49.359375 -57.875 L 49.359375 0.40625 L 41.09375 0.40625 Z M 19.34375 -30.171875 "/></g></g></g></svg>